HIERARCHY
ROOT Hips
{
	OFFSET	0.00	0.00	0.00
	CHANNELS 6 Xposition Yposition Zposition Zrotation Xrotation Yrotation
	JOINT LeftUpLeg
	{
		OFFSET	 0.126116	-0.065224	 0.014019
		CHANNELS 3 Zrotation Xrotation Yrotation
		JOINT LeftLeg
		{
			OFFSET	 0.000000	 0.569914	 0.000000
			CHANNELS 3 Zrotation Xrotation Yrotation
			JOINT LeftFoot
			{
				OFFSET	 0.000000	 0.544423	 0.000000
				CHANNELS 3 Zrotation Xrotation Yrotation
				JOINT LeftToeBase
				{
					OFFSET	 0.000000	 0.207117	 0.000000
					CHANNELS 3 Zrotation Xrotation Yrotation
					End Site
					{
						OFFSET	 0.000000	 0.207117	 0.000000
					}
				}
			}
		}
	}
	JOINT RightUpLeg
	{
		OFFSET	-0.124023	-0.065224	 0.008373
		CHANNELS 3 Zrotation Xrotation Yrotation
		JOINT RightLeg
		{
			OFFSET	 0.000000	 0.570047	 0.000000
			CHANNELS 3 Zrotation Xrotation Yrotation
			JOINT RightFoot
			{
				OFFSET	 0.000000	 0.544354	 0.000000
				CHANNELS 3 Zrotation Xrotation Yrotation
				JOINT RightToeBase
				{
					OFFSET	 0.000000	 0.207540	 0.000000
					CHANNELS 3 Zrotation Xrotation Yrotation
					End Site
					{
						OFFSET	 0.000000	 0.207540	 0.000000
					}
				}
			}
		}
	}
	JOINT Spine
	{
		OFFSET	 0.000184	 0.117403	 0.007763
		CHANNELS 3 Zrotation Xrotation Yrotation
		JOINT Spine1
		{
			OFFSET	 0.000000	 0.137269	 0.000000
			CHANNELS 3 Zrotation Xrotation Yrotation
			JOINT Spine2
			{
				OFFSET	 0.000000	 0.156879	 0.000000
				CHANNELS 3 Zrotation Xrotation Yrotation
				JOINT LeftShoulder
				{
					OFFSET	 0.080501	 0.160143	 0.002496
					CHANNELS 3 Zrotation Xrotation Yrotation
					JOINT LeftArm
					{
						OFFSET	 0.000000	 0.164363	 0.000000
						CHANNELS 3 Zrotation Xrotation Yrotation
						JOINT LeftForeArm
						{
							OFFSET	 0.000000	 0.364576	 0.000000
							CHANNELS 3 Zrotation Xrotation Yrotation
							JOINT LeftHand
							{
								OFFSET	 0.000000	 0.360812	 0.000000
								CHANNELS 3 Zrotation Xrotation Yrotation
								JOINT LeftHandIndex1
								{
									OFFSET	 0.000000	 0.086006	 0.000000
									CHANNELS 3 Zrotation Xrotation Yrotation
									JOINT LeftHandIndex2
									{
										OFFSET	 0.000000	 0.047237	 0.000000
										CHANNELS 3 Zrotation Xrotation Yrotation
										JOINT LeftHandIndex3
										{
											OFFSET	-0.004284	 0.038165	 0.000551
											CHANNELS 3 Zrotation Xrotation Yrotation
											End Site
											{
												OFFSET	-0.004284	 0.038165	 0.000551
											}
										}
									}
								}
							}
						}
					}
				}
				JOINT Neck
				{
					OFFSET	 0.000000	 0.176489	 0.000000
					CHANNELS 3 Zrotation Xrotation Yrotation
					JOINT Head
					{
						OFFSET	 0.000000	 0.077941	 0.001747
						CHANNELS 3 Zrotation Xrotation Yrotation
						End Site
						{
							OFFSET	 0.000000	 0.077941	 0.001747
						}
					}
				}
				JOINT RightShoulder
				{
					OFFSET	-0.080363	 0.159706	-0.000306
					CHANNELS 3 Zrotation Xrotation Yrotation
					JOINT RightArm
					{
						OFFSET	 0.000000	 0.164196	 0.000000
						CHANNELS 3 Zrotation Xrotation Yrotation
						JOINT RightForeArm
						{
							OFFSET	 0.000000	 0.365611	 0.000000
							CHANNELS 3 Zrotation Xrotation Yrotation
							JOINT RightHand
							{
								OFFSET	 0.000000	 0.360648	 0.000000
								CHANNELS 3 Zrotation Xrotation Yrotation
								JOINT RightHandIndex1
								{
									OFFSET	 0.000000	 0.069977	 0.000000
									CHANNELS 3 Zrotation Xrotation Yrotation
									JOINT RightHandIndex2
									{
										OFFSET	 0.000000	 0.052305	 0.000000
										CHANNELS 3 Zrotation Xrotation Yrotation
										JOINT RightHandIndex3
										{
											OFFSET	 0.009002	 0.042196	 0.000782
											CHANNELS 3 Zrotation Xrotation Yrotation
											End Site
											{
												OFFSET	 0.009002	 0.042196	 0.000782
											}
										}
									}
								}
							}
						}
					}
				}
			}
		}
	}
}
MOTION
Frames:    8
Frame Time: 0.03333334
 0.005192	 1.237651	-0.125247	 4.774335	 0.281440	 174.005400	-177.155500	 16.398470	 19.342250	 3.531436	-33.745800	 1.664863	 55.946290	 50.938580	-74.388580	 4.912824	 28.009660	-6.307252	-170.765700	-14.475060	-9.005686	-0.436056	-5.046550	 2.117392	-66.940360	 61.803610	 69.096050	-0.379076	 31.174810	 1.635601	 1.337592	 3.979374	-9.753499	 9.870203	 8.560648	-5.517388	-8.492965	-6.590924	 17.959480	-112.552100	 3.114276	 88.312220	-10.512590	 50.456170	 35.242150	 29.065730	-1.467306	 0.947740	-23.460170	-7.812487	-79.052150	-8.001645	 12.522180	-5.837077	-7.228810	 12.661110	 2.803616	 4.963066	-4.014628	-0.346955	 1.506875	-13.897560	 1.358887	-2.023834	 8.964504	-23.909610	 109.111800	 0.685205	-88.600540	-12.810490	 67.341510	 12.275770	-5.091607	-0.470506	 41.339530	-23.041470	 9.658008	-84.927490	 2.001468	 8.270689	 8.960349	 15.202940	 20.255410	-6.345952	-8.239867	-2.131385	 0.447455
 0.000194	 1.241422	-0.079928	 4.692559	 0.206300	 174.157000	-177.019700	 16.553950	 19.347730	 3.373804	-32.549780	 1.641912	 54.331030	 50.328120	-72.524170	 4.912829	 28.009690	-6.307230	-170.816500	-12.099220	-9.512341	-0.439823	-5.089781	 1.961180	-63.193270	 60.116810	 65.308310	-0.392271	 31.190940	 1.648687	 1.307869	 4.000705	-9.758814	 9.570253	 8.305264	-5.459160	-8.148816	-6.300577	 17.906220	-112.477100	 3.020353	 88.299390	-10.742190	 50.574230	 35.246580	 29.451600	-1.484969	 0.954295	-24.436210	-8.167959	-78.180690	-7.915208	 12.593010	-5.858527	-7.229204	 12.644680	 2.801372	 4.963066	-4.014628	-0.346955	 1.429435	-13.779950	 1.398533	-1.984996	 9.299136	-24.152150	 109.018000	 0.756855	-88.636840	-12.748850	 67.241960	 12.520920	-5.103111	-0.471568	 41.109680	-22.906740	 9.479258	-84.990250	 1.927113	 8.070081	 8.958429	 15.203240	 20.299920	-6.358130	-8.239867	-2.131385	 0.447455
-0.005209	 1.245185	-0.031667	 4.566327	 0.089543	 174.391100	-177.194400	 17.308200	 19.501320	 3.368264	-32.507020	 1.734648	 53.236210	 50.000340	-71.408000	 4.912836	 28.009730	-6.307196	-170.101800	-6.450022	-9.845453	-1.006181	-11.516550	 1.648299	-63.962650	 59.690830	 67.249450	-0.412653	 31.215830	 1.668900	 1.266442	 4.037215	-9.749331	 9.092661	 7.913183	-5.358375	-7.612520	-5.853386	 17.818610	-112.361400	 2.875340	 88.279800	-10.931740	 50.825100	 35.125510	 29.743950	-1.498212	 0.956582	-25.730490	-8.771321	-76.809940	-7.781673	 12.702280	-5.891865	-7.229811	 12.619300	 2.797907	 4.963066	-4.014628	-0.346955	 1.309798	-13.598480	 1.460020	-1.921373	 9.815201	-24.528520	 108.873400	 0.867556	-88.692630	-6.754098	 67.689150	 7.450911	-9.727235	-0.895661	 40.700440	-20.764480	 7.980955	-85.540330	 1.812377	 7.760377	 8.954948	 15.203730	 20.368610	-6.376939	-8.239867	-2.131385	 0.447455
-0.010133	 1.248408	 0.012446	 4.414491	-0.052067	 174.670700	-177.208000	 17.534660	 19.645150	 3.226081	-31.398730	 1.771374	 51.857330	 49.330590	-69.790110	 4.912845	 28.009780	-6.307155	-169.572200	-1.596995	-10.161390	-1.471179	-16.588720	 1.271911	-63.957220	 59.124950	 68.207800	-0.437182	 31.245740	 1.693226	 1.223590	 4.086245	-9.711062	 8.496424	 7.443603	-5.221210	-6.960380	-5.316718	 17.704590	-112.222300	 2.700881	 88.256610	-11.074910	 51.153980	 34.910670	 29.906950	-1.505390	 0.954599	-27.099570	-9.567013	-75.121380	-7.620940	 12.833580	-5.932319	-7.230543	 12.588790	 2.793742	 4.963066	-4.014628	-0.346955	 1.165792	-13.380450	 1.534412	-1.838962	 10.434810	-24.984120	 108.699600	 1.000885	-88.759350	-2.116899	 67.795500	 3.727560	-13.056230	-1.197507	 40.215690	-19.181210	 6.836513	-85.839950	 1.674484	 7.387951	 8.949937	 15.204340	 20.451220	-6.399566	-8.239867	-2.131385	 0.447455
-0.014274	 1.250444	 0.046530	 4.192870	-0.256684	 175.061400	-177.320500	 17.656190	 19.911840	 3.076358	-30.202490	 1.843004	 50.706540	 48.624410	-68.391910	 4.912857	 28.009840	-6.307098	-169.413900	 1.792215	-10.291830	-1.746038	-19.470580	 0.849161	-63.189930	 58.356850	 68.062330	-0.470831	 31.286720	 1.726598	 1.163662	 4.150977	-9.621881	 7.632896	 6.800663	-5.016491	-6.049310	-4.583528	 17.532980	-112.031800	 2.461734	 88.225560	-11.149160	 51.629580	 34.512700	 29.871310	-1.503465	 0.944911	-28.689580	-10.775060	-72.748240	-7.400380	 13.013330	-5.988404	-7.231551	 12.546980	 2.788035	 4.963066	-4.014628	-0.346955	 0.968176	-13.081940	 1.637166	-1.715527	 11.281950	-25.614120	 108.461700	 1.183912	-88.850130	 2.451177	 67.681970	 0.285863	-16.085550	-1.468703	 39.567230	-17.711660	 5.757395	-85.957770	 1.485626	 6.877553	 8.941610	 15.205240	 20.564410	-6.430594	-8.239867	-2.131385	 0.447455
-0.015477	 1.249072	 0.044664	 3.977387	-0.458036	 175.433300	-177.798900	 18.113570	 20.338310	 3.144736	-30.752570	 2.012940	 50.944090	 48.662750	-68.749700	 4.912868	 28.009910	-6.307046	-169.530200	 2.569452	-9.966063	-1.874456	-20.783340	 0.507348	-64.290140	 58.413170	 69.544860	-0.502746	 31.325530	 1.758250	 1.114025	 4.213436	-9.501918	 6.774486	 6.193004	-4.808420	-5.171497	-3.892996	 17.353770	-111.851500	 2.235089	 88.196890	-11.080310	 52.113890	 34.018690	 29.582710	-1.489985	 0.929100	-29.912480	-12.041380	-70.451310	-7.191123	 13.183420	-6.042228	-7.232509	 12.507370	 2.782628	 4.963066	-4.014628	-0.346955	 0.780679	-12.799470	 1.735369	-1.587382	 12.082030	-26.217010	 108.236600	 1.357657	-88.935460	 5.738624	 67.447260	-2.002948	-18.074200	-1.644469	 38.968460	-16.729460	 5.029128	-85.881160	 1.306817	 6.394039	 8.932168	 15.206160	 20.671640	-6.460011	-8.239867	-2.131385	 0.447455
-0.017320	 1.246899	 0.041747	 3.670749	-0.752347	 175.962400	-178.507800	 18.765170	 20.968610	 3.248214	-31.573120	 2.251692	 51.345680	 48.743020	-69.327740	 4.912885	 28.010000	-6.306970	-169.729600	 3.627575	-9.496461	-2.052701	-22.568150	 0.049343	-65.839840	 58.498500	 71.613980	-0.548437	 31.380970	 1.803565	 1.063116	 4.310281	-9.280931	 5.496854	 5.327679	-4.497895	-3.899355	-2.915732	 17.069230	-111.594000	 1.910913	 88.157130	-10.924290	 52.794640	 33.253930	 29.079280	-1.466465	 0.904390	-31.377380	-14.030080	-67.102990	-6.891437	 13.426230	-6.120347	-7.233885	 12.450750	 2.774899	 4.963066	-4.014628	-0.346955	 0.512134	-12.396200	 1.877214	-1.385202	 13.220960	-27.089350	 107.915200	 1.606614	-89.056240	 9.816094	 67.022670	-4.688080	-20.411030	-1.848418	 38.123340	-15.565830	 4.171880	-85.605820	 1.051324	 5.702848	 8.916051	 15.207570	 20.824930	-6.502103	-8.239867	-2.131385	 0.447455
-0.019079	 1.244862	 0.038973	 3.389378	-1.031563	 176.451000	-179.176100	 19.350940	 21.568980	 3.343662	-32.317180	 2.465948	 51.741240	 48.823120	-69.884400	 4.912899	 28.010090	-6.306899	-169.948600	 4.535452	-9.057917	-2.206368	-24.070580	-0.344385	-67.191520	 58.559700	 73.407220	-0.590870	 31.432350	 1.845651	 1.034829	 4.406972	-9.039706	 4.273114	 4.527187	-4.212209	-2.707695	-2.022351	 16.775610	-111.355500	 1.610230	 88.121600	-10.696240	 53.433240	 32.468150	 28.543050	-1.441278	 0.879869	-32.479540	-16.048040	-63.957440	-6.612997	 13.651000	-6.194015	-7.235168	 12.398250	 2.767734	 4.963066	-4.014628	-0.346955	 0.262598	-12.022880	 2.010262	-1.177753	 14.271080	-27.909380	 107.617700	 1.838008	-89.166980	 13.005310	 66.605900	-6.628301	-22.184440	-2.001157	 37.351380	-14.648430	 3.484020	-85.249790	 0.814522	 5.062063	 8.898356	 15.208990	 20.967060	-6.541171	-8.239867	-2.131385	 0.447455
